<?xml version="1.0" encoding="iso-8859-1"?>
<!-- Generator: Adobe Illustrator 19.0.0, SVG Export Plug-In . SVG Version: 6.00 Build 0)  -->
<svg version="1.1" id="Capa_1" xmlns="http://www.w3.org/2000/svg" xmlns:xlink="http://www.w3.org/1999/xlink" x="0px" y="0px"
	 viewBox="0 0 512 512" style="enable-background:new 0 0 512 512;" xml:space="preserve">
<path style="fill:#D8E0EA;" d="M476.127,20.252v297.022c0,6.992-5.726,12.718-12.718,12.718H48.581
	c-6.992,0-12.708-5.726-12.708-12.718V20.252c0-6.992,5.716-12.718,12.708-12.718h414.828
	C470.401,7.534,476.127,13.26,476.127,20.252z"/>
<path style="fill:#FFFFFF;" d="M476.127,20.252v297.022c0,6.992-5.726,12.718-12.718,12.718h-386.7
	c-6.992,0-12.708-5.726-12.708-12.718V20.252c0-6.992,5.716-12.718,12.708-12.718h386.7C470.401,7.534,476.127,13.26,476.127,20.252
	z"/>
<g>
	<path style="fill:#FFA816;" d="M96.027,232.789v10.88c0,3.757-3.044,6.801-6.801,6.801h-10.88c-3.747,0-6.791-3.044-6.791-6.801
		v-10.88c0-3.747,3.044-6.791,6.791-6.791h10.88C92.983,225.998,96.027,229.042,96.027,232.789z"/>
	<path style="fill:#FFA816;" d="M150.977,232.789v10.88c0,3.757-3.034,6.801-6.791,6.801h-10.88c-3.747,0-6.791-3.044-6.791-6.801
		v-10.88c0-3.747,3.044-6.791,6.791-6.791h10.88C147.943,225.998,150.977,229.042,150.977,232.789z"/>
	<path style="fill:#FFA816;" d="M205.937,232.789v10.88c0,3.757-3.044,6.801-6.791,6.801h-10.88c-3.757,0-6.801-3.044-6.801-6.801
		v-10.88c0-3.747,3.044-6.791,6.801-6.791h10.88C202.893,225.998,205.937,229.042,205.937,232.789z"/>
	<path style="fill:#FFA816;" d="M260.897,232.789v10.88c0,3.757-3.044,6.801-6.791,6.801h-10.88c-3.757,0-6.801-3.044-6.801-6.801
		v-10.88c0-3.747,3.044-6.791,6.801-6.791h10.88C257.853,225.998,260.897,229.042,260.897,232.789z"/>
	<path style="fill:#FFA816;" d="M96.027,281.26v10.88c0,3.747-3.044,6.791-6.801,6.791h-10.88c-3.747,0-6.791-3.044-6.791-6.791
		v-10.88c0-3.757,3.044-6.791,6.791-6.791h10.88C92.983,274.469,96.027,277.503,96.027,281.26z"/>
	<path style="fill:#FFA816;" d="M150.977,281.26v10.88c0,3.747-3.034,6.791-6.791,6.791h-10.88c-3.747,0-6.791-3.044-6.791-6.791
		v-10.88c0-3.757,3.044-6.791,6.791-6.791h10.88C147.943,274.469,150.977,277.503,150.977,281.26z"/>
	<path style="fill:#FFA816;" d="M205.937,281.26v10.88c0,3.747-3.044,6.791-6.791,6.791h-10.88c-3.757,0-6.801-3.044-6.801-6.791
		v-10.88c0-3.757,3.044-6.791,6.801-6.791h10.88C202.893,274.469,205.937,277.503,205.937,281.26z"/>
	<path style="fill:#FFA816;" d="M260.897,281.26v10.88c0,3.747-3.044,6.791-6.791,6.791h-10.88c-3.757,0-6.801-3.044-6.801-6.791
		v-10.88c0-3.757,3.044-6.791,6.801-6.791h10.88C257.853,274.469,260.897,277.503,260.897,281.26z"/>
</g>
<g>
	<path style="fill:#FFC843;" d="M96.027,232.789v2.341c0,3.757-3.044,6.801-6.801,6.801h-10.88c-3.747,0-6.791-3.044-6.791-6.801
		v-2.341c0-3.747,3.044-6.791,6.791-6.791h10.88C92.983,225.998,96.027,229.042,96.027,232.789z"/>
	<path style="fill:#FFC843;" d="M150.977,232.789v2.341c0,3.757-3.034,6.801-6.791,6.801h-10.88c-3.747,0-6.791-3.044-6.791-6.801
		v-2.341c0-3.747,3.044-6.791,6.791-6.791h10.88C147.943,225.998,150.977,229.042,150.977,232.789z"/>
	<path style="fill:#FFC843;" d="M205.937,232.789v2.341c0,3.757-3.044,6.801-6.791,6.801h-10.88c-3.757,0-6.801-3.044-6.801-6.801
		v-2.341c0-3.747,3.044-6.791,6.801-6.791h10.88C202.893,225.998,205.937,229.042,205.937,232.789z"/>
	<path style="fill:#FFC843;" d="M260.897,232.789v2.341c0,3.757-3.044,6.801-6.791,6.801h-10.88c-3.757,0-6.801-3.044-6.801-6.801
		v-2.341c0-3.747,3.044-6.791,6.801-6.791h10.88C257.853,225.998,260.897,229.042,260.897,232.789z"/>
	<path style="fill:#FFC843;" d="M96.027,281.26v2.341c0,3.747-3.044,6.791-6.801,6.791h-10.88c-3.747,0-6.791-3.044-6.791-6.791
		v-2.341c0-3.757,3.044-6.791,6.791-6.791h10.88C92.983,274.469,96.027,277.503,96.027,281.26z"/>
	<path style="fill:#FFC843;" d="M150.977,281.26v2.341c0,3.747-3.034,6.791-6.791,6.791h-10.88c-3.747,0-6.791-3.044-6.791-6.791
		v-2.341c0-3.757,3.044-6.791,6.791-6.791h10.88C147.943,274.469,150.977,277.503,150.977,281.26z"/>
	<path style="fill:#FFC843;" d="M205.937,281.26v2.341c0,3.747-3.044,6.791-6.791,6.791h-10.88c-3.757,0-6.801-3.044-6.801-6.791
		v-2.341c0-3.757,3.044-6.791,6.801-6.791h10.88C202.893,274.469,205.937,277.503,205.937,281.26z"/>
	<path style="fill:#FFC843;" d="M260.897,281.26v2.341c0,3.747-3.044,6.791-6.791,6.791h-10.88c-3.757,0-6.801-3.044-6.801-6.791
		v-2.341c0-3.757,3.044-6.791,6.801-6.791h10.88C257.853,274.469,260.897,277.503,260.897,281.26z"/>
</g>
<path style="fill:#76FFD9;" d="M398.889,303.668h-57.09c-6.59,0-11.931-5.342-11.931-11.931v-57.09
	c0-6.59,5.342-11.931,11.931-11.931h57.09c6.59,0,11.931,5.342,11.931,11.931v57.09
	C410.821,298.327,405.479,303.668,398.889,303.668z"/>
<g>
	<circle style="fill:#FF8025;" cx="191.27" cy="45.016" r="11.161"/>
	<circle style="fill:#FF8025;" cx="141.182" cy="45.016" r="11.161"/>
</g>
<path style="fill:#00C395;" d="M265.498,98.378v83.168c0,7.384-6.037,13.421-13.411,13.421H80.366
	c-7.374,0-13.411-6.037-13.411-13.421V98.378c0-7.384,6.037-13.421,13.411-13.421h171.721
	C259.461,84.957,265.498,90.994,265.498,98.378z"/>
<path style="fill:#76FFD9;" d="M265.498,98.378v83.168c0,7.384-6.037,13.421-13.411,13.421H108.494
	c-7.374,0-13.411-6.037-13.411-13.421V98.378c0-7.384,6.037-13.421,13.411-13.421h143.593
	C259.461,84.957,265.498,90.994,265.498,98.378z"/>
<path style="fill:#FFC843;" d="M463.871,372.947v66.874c0,9.353-7.645,16.997-16.997,16.997h-78.256
	c-9.353,0-16.997-7.645-16.997-16.997v-15.491c0-1.497-0.673-2.923-1.828-3.868l-39.53-32.538
	c-8.067-6.64-9.483-18.876-2.732-26.862c6.59-7.785,18.333-8.86,26.229-2.361l9.714,7.775c0.954,0.763,2.039,1.105,3.104,1.105
	c2.592,0,5.043-2.039,5.043-5.023c0-0.392,0.01-0.774,0.04-1.155c-0.03-0.392-0.04-0.773-0.04-1.165V272.55
	c0-9.785,7.514-17.891,17.058-18.836c1.115-0.111,2.26-0.121,3.416-0.03c9.895,0.794,17.379,9.322,17.379,19.248v83.018h57.401
	C456.226,355.95,463.871,363.595,463.871,372.947z"/>
<path style="fill:#C1C8D2;" d="M459.993,467.628v25.436c0,6.017-4.882,10.9-10.9,10.9h-85.047c-6.017,0-10.9-4.882-10.9-10.9
	v-25.436c0-7.092,5.806-12.899,12.899-12.899h81.049C454.187,454.729,459.993,460.536,459.993,467.628z"/>
<path style="fill:#D8E0EA;" d="M459.993,467.628v15.239h-77.864c-6.017,0-10.9-4.882-10.9-10.9v-17.238h75.865
	C454.187,454.729,459.993,460.536,459.993,467.628z"/>
<path style="fill:#FFFFFF;" d="M463.871,372.947v61.862h-81.129c-7.765,0-14.064-6.299-14.064-14.064v-167.03
	c1.115-0.111,2.26-0.121,3.416-0.03c9.895,0.794,17.379,9.322,17.379,19.248v83.018h57.401
	C456.226,355.95,463.871,363.595,463.871,372.947z"/>
<g>
	<path style="fill:#434C54;" d="M463.409,0H48.581C37.42,0,28.339,9.091,28.339,20.252v256.015c0,4.159,3.365,7.534,7.534,7.534
		c4.159,0,7.534-3.375,7.534-7.534V20.252c0-2.813,2.371-5.184,5.174-5.184h414.828c2.813,0,5.184,2.371,5.184,5.184V169.12
		c0,4.159,3.375,7.534,7.534,7.534s7.534-3.375,7.534-7.534V20.252C483.661,9.091,474.58,0,463.409,0z"/>
	<path style="fill:#434C54;" d="M476.127,191.722c-4.159,0-7.534,3.365-7.534,7.534v118.017c0,2.803-2.371,5.184-5.184,5.184h-65.9
		v-11.251h1.376c10.739,0,19.469-8.74,19.469-19.469v-57.09c0-10.739-8.73-19.469-19.469-19.469h-57.09
		c-10.729,0-19.459,8.73-19.459,19.469v57.09c0,10.729,8.73,19.469,19.459,19.469h1.788v11.251H48.581
		c-2.803,0-5.174-2.381-5.174-5.184v-10.869c0-4.169-3.375-7.534-7.534-7.534c-4.169,0-7.534,3.365-7.534,7.534v10.869
		c0,11.161,9.081,20.252,20.242,20.252h295.003v18.735l-4.762-3.807c-11.251-9.212-28.028-7.685-37.43,3.416
		c-9.71,11.502-7.682,28.846,3.767,38.264l38.425,31.624c0.867,9.603-2.838,20.247,6.238,30.569
		c-2.943,3.576-4.711,8.147-4.711,13.12v23.849c0,10.317,8.388,18.705,18.705,18.705h85.509c10.317,0,18.705-8.388,18.705-18.705
		v-23.849c0-4.36-1.356-8.408-3.667-11.743c4.651-4.541,7.544-10.879,7.544-17.881v-66.874c0-13.803-11.231-25.034-25.034-25.034
		h-49.365v-10.387h65.9c11.171,0,20.252-9.091,20.252-20.252V199.257C483.661,195.088,480.286,191.722,476.127,191.722z
		 M451.957,493.295c0,1.457-1.175,2.632-2.632,2.632h-85.509c-1.447,0-2.632-1.175-2.632-2.632v-23.849
		c0-2.491,2.1-4.591,4.591-4.591c10.693,0,72.545,0,81.099,0h0.502c2.481,0,4.581,2.1,4.581,4.591L451.957,493.295L451.957,493.295z
		 M446.874,363.986c4.943,0,8.961,4.018,8.961,8.961v66.874c0,4.943-4.018,8.961-8.961,8.961h-78.256
		c-4.943,0-8.961-4.018-8.961-8.961v-15.491c0-3.918-1.738-7.585-4.762-10.076l-39.52-32.528c-2.311-1.899-3.787-4.721-4.058-7.755
		c-0.598-6.578,4.548-11.492,10.548-11.492c3.434,0,5.132,1.335,6.871,2.491l9.714,7.775c3.958,3.164,9.242,3.767,13.803,1.577
		c5.121-2.465,7.906-7.689,7.424-13.471c-0.031-0.628-0.02,2.997-0.02-88.302c0-3.054,1.246-5.897,3.526-7.996
		c7.109-6.543,18.253-1.326,18.253,8.378c0,13.926,0,61.328,0,83.018c0,4.44,3.606,8.037,8.037,8.037L446.874,363.986
		L446.874,363.986z M352.283,252.74c-5.535,5.103-8.7,12.326-8.7,19.81v23.587h-1.788c-2.421,0-4.39-1.979-4.39-4.4v-57.09
		c0-2.431,1.969-4.4,4.39-4.4h57.09c2.431,0,4.4,1.969,4.4,4.4v57.09c0,2.421-1.969,4.4-4.4,4.4h-1.376v-23.206
		C397.509,249.492,369.785,236.607,352.283,252.74z"/>
</g>
<g>
	<path style="fill:#C1C8D2;" d="M303.758,76.342c0,4.161,3.372,7.534,7.534,7.534h118.102c4.162,0,7.534-3.373,7.534-7.534
		c0-4.161-3.372-7.534-7.534-7.534H311.293C307.131,68.808,303.758,72.181,303.758,76.342z"/>
	<path style="fill:#C1C8D2;" d="M288.111,108.48c0,4.161,3.372,7.534,7.534,7.534h149.398c4.162,0,7.534-3.373,7.534-7.534
		c0-4.161-3.372-7.534-7.534-7.534H295.645C291.483,100.945,288.111,104.319,288.111,108.48z"/>
	<path style="fill:#C1C8D2;" d="M412.828,51.739c4.162,0,7.534-3.373,7.534-7.534s-3.372-7.534-7.534-7.534H327.86
		c-4.162,0-7.534,3.373-7.534,7.534s3.372,7.534,7.534,7.534H412.828z"/>
	<path style="fill:#C1C8D2;" d="M327.86,165.221c-4.162,0-7.534,3.373-7.534,7.534s3.372,7.534,7.534,7.534h84.968
		c4.162,0,7.534-3.373,7.534-7.534s-3.372-7.534-7.534-7.534H327.86z"/>
	<path style="fill:#C1C8D2;" d="M436.929,140.618c0-4.161-3.372-7.534-7.534-7.534H311.293c-4.162,0-7.534,3.373-7.534,7.534
		s3.372,7.534,7.534,7.534h118.102C433.557,148.152,436.929,144.779,436.929,140.618z"/>
</g>
<g>
</g>
<g>
</g>
<g>
</g>
<g>
</g>
<g>
</g>
<g>
</g>
<g>
</g>
<g>
</g>
<g>
</g>
<g>
</g>
<g>
</g>
<g>
</g>
<g>
</g>
<g>
</g>
<g>
</g>
</svg>
